<svg xmlns="http://www.w3.org/2000/svg" viewBox="0 0 384 512" xmlns:v="https://vecta.io/nano"><path d="M214.6 470.625c-12.5 12.5-32.8 12.5-45.3 0l-160-160c-12.5-12.5-12.5-32.8 0-45.3s32.8-12.5 45.3 0l105.4 105.5v-306.8c0-17.673 14.327-32 32-32s32 14.327 32 32v306.7l105.4-105.3c12.5-12.5 32.8-12.5 45.3 0s12.5 32.8 0 45.3l-160 160z"/><path d="M214.677 328.048c-12.5 12.5-32.8 12.5-45.3 0l-160-160c-12.5-12.5-12.5-32.8 0-45.3s32.8-12.5 45.3 0l105.4 105.5 5.986-171.881c.615-17.662 7.92-19.551 25.594-19.551s32.315 7.454 32.325 25.128l.095 166.205 105.4-105.3c12.5-12.5 32.8-12.5 45.3 0s12.5 32.8 0 45.3l-160 160z"/></svg>