<svg xmlns="http://www.w3.org/2000/svg" viewBox="0 0 256 256" fill="blue" xmlns:v="https://vecta.io/nano"><path d="M143.1 11.1c-8.1 2.6-11.2 5.3-12.9 11.2-2.1 6.9-.9 13.2 3.1 17.2l2.5 2.5 6.9-.3c8.4-.4 10.4-1.2 14.2-5.4 4.1-4.5 5.7-9.1 5.7-15.4 0-6-1.2-8.7-4.3-10.1-2.9-1.2-10.9-1-15.2.3zm-1.2 67c-8.9 1.7-28.9 14.8-42.4 27.8-4.2 4-4.9 5-5.6 7.7-1.5 6.4-.4 9.1 2.6 6.4.7-.7 3.6-2.7 6.2-4.4 10.2-6.7 15.5-7.5 15.5-2.1 0 1.1-2 11.6-4.4 23.4-15.9 77.3-17.4 85.6-17.4 93.9.1 7 2.1 12.9 5.1 14.4 7.1 3.7 24.5-4.8 40.2-19.8 8.6-8.2 13.2-13.9 14-17.4s.9-9.1.1-9.6c-.3-.2-2.6 1.7-5.1 4.1-11.1 10.9-19.4 15.1-22.5 11.2-2.6-3.2-1.2-11.8 8.9-59.6 12.1-57.1 13.2-63.5 12.2-70.7-.4-2.7-2.6-6.1-3.9-5.9-.5 0-2 .3-3.5.6z"/></svg>
