<svg xmlns="http://www.w3.org/2000/svg" width="46.483" height="68.602" xmlns:v="https://vecta.io/nano"><path d="M23.803 1.002c-.423 1.822-.635 3.236-.635 4.245 0 1.431.423 2.911 1.27 4.44s2.344 3.496 4.492 5.903c4.329 4.945 7.332 8.482 9.009 10.612s3.035 4.14 4.077 6.026c1.237 2.245 2.124 4.334 2.661 6.27s.806 4.01.806 6.221a23.63 23.63 0 0 1-1.416 8.075c-.944 2.618-2.263 4.92-3.955 6.904-4.492 5.271-11.377 7.904-20.654 7.904H1V51.831h16.357c3.483 0 5.973-.862 7.471-2.588 1.204-1.433 1.807-2.979 1.807-4.639 0-1.921-.684-3.897-2.051-5.933S19.848 32.56 14.477 26.44c-2.474-2.864-4.37-5.216-5.688-7.056s-2.287-3.523-2.905-5.054c-1.042-2.571-1.563-4.915-1.563-7.031 0-1.563.228-3.662.684-6.299h18.798z" fill="#010202" stroke="#fff" stroke-width="2" stroke-miterlimit="10"/></svg>