<svg xmlns="http://www.w3.org/2000/svg" viewBox="0 0 876.087 1290.129" xmlns:v="https://vecta.io/nano"><path d="M470.033 549.845c-.99-1.385-2.186-2.623-3.258-3.953l-26.982-33.449c-4.685-5.699-9.71-11.119-14.637-16.728-2.232 2.611-4.127 4.663-5.83 6.863-1.798 2.323-3.182 5-5.151 7.15-5.34 5.829-9.983 8.253-16.603.361-5.54-6.605-11.329-13.003-17.008-19.493l-2.061.972 1.502 5.903c.26.907.89 1.722 1.08 2.635 1.728 8.295 3.164 16.661 5.249 24.863.5 1.965 2.814 4.225 4.789 4.896 3.806 1.295 7.985 1.45 11.973 2.263 6.774 1.38 13.384 2.687 14.874 11.431 1.666 9.782 4.288 19.401 5.976 29.182.498 2.889-.836 6.07-1.19 9.135-.314 2.721-1.382 5.825-.496 8.142l27.781 70.975 33.824 85.381 39.596 96.274c2.105 5.049 4.561 10.453 8.354 14.152 3.598 3.508 5.777 7.191 7.48 11.658 1.613 4.234 4.014 8.168 5.631 12.398.676 1.768.279 3.965.277 5.965-.006 3.002-1.006 6.354-.01 8.953l41.098 105.6 53.924 132.16c2.436 5.955 4.52 11.914 3.945 18.543-.447 5.174-3.566 9.67-7.852 9.953-7.758.514-15.619 1.531-23.266.721-3.781-.4-8.078-3.723-10.51-6.951-2.627-3.486-3.246-8.449-4.924-12.695l-25.436-64.004-34.018-83.756-28.143-68.248c-2.438-5.82-4.238-12.936-8.678-16.648-6.865-5.74-9.842-12.793-12.252-20.586-2.135-6.9-3.906-13.914-5.84-20.881l-26.815 7.07-71.772 17.131c-.905.219-2.302 1.355-2.271 2.008.18 3.916.537 7.846 1.163 11.717 1.062 6.568 2.683 13.059 3.479 19.652.751 6.221 1.088 12.539.966 18.803-.111 5.656 2.341 12.035-3.946 16.467-1.498 1.057-2.856 3.568-2.802 5.363.412 13.379 1.199 26.746 1.863 40.117l2.006 40.621 2.005 40.615 1.99 40.117 2.018 42.615 2.004 38.119 2.832 44.395c.124 2.553-.841 6.84-2.441 7.48-4.834 1.938-8.948 6.551-15.046 4.908-1.504-.406-3.271.205-4.92.281-4.459.209-8.969.875-13.369.445-5.775-.564-9.729-4.969-9.972-10.918-.183-4.49.963-9.037.776-13.527-.307-7.381-1.404-14.727-1.824-22.107l-2.044-42.613-1.996-42.623-1.991-43.117-2.003-50.627-1-31.813-1.156-38.805c-.096-1.988-2.046-3.945-3.302-5.807-1.42-2.107-4.523-4.264-4.311-6.102 1.697-14.662-4.391-29.621 1.681-44.076.299-.713.128-1.656.065-2.482-.313-4.102-.498-8.225-1.112-12.281-.163-1.072-1.553-2.572-2.614-2.805l-60.687-13.021-67.993-12.924c-.47.781-.845 1.314-1.124 1.896-.21.438-.315.928-.437 1.404-2.578 10.107-5.912 19.756-14.516 26.646-1.559 1.248-2.678 3.326-3.439 5.244l-25.124 63.621-32.712 78.539-28.456 70.178c-4.196 10.561-8.215 21.23-11.477 32.104-1.216 4.053-3.49 6.221-6.766 6.859-10.446 2.031-21.02 2.518-31.4-.525-8.078-2.369-9.73-6.404-6.148-14.031 4.989-10.621 10.437-21.055 14.882-31.9l31.489-78.945 28.738-71.709 25.841-64.889c1.658-4.211 4.274-8.871 3.71-12.943-.91-6.568.219-11.848 3.236-17.604 4.622-8.818 5.249-19.766 14.473-26.131 1.188-.82 1.681-2.762 2.307-4.262l27.58-66.348 26.699-65.128 49.088-118.256c1.619-3.889 2.987-7.462.24-11.595-.914-1.374-.52-3.995-.023-5.859 1.752-6.595 4.559-12.994 5.583-19.68 1.828-11.922 5.078-15.167 16.901-15.985 4.79-.332 9.986-1.323 14.003-3.696 2.192-1.296 2.315-6.106 3.351-9.338.347-1.082.513-2.233.956-3.27 2.792-6.525 5.055-13.389 8.75-19.361 1.516-2.45 2.288-3.638.866-6.021-2.59-4.34-6.817-8.6-7.218-13.169-.927-10.585.499-21.187 9.268-29.015l12.477-10.941c-5.368-3.448-7.621-8.294-6.9-13.43 1.218-8.687 5.543-16.182 11.688-22.523 5.19-5.354 10.629-10.5 15.42-16.19 1.152-1.368.873-4.849-.009-6.781-.986-2.159-3.56-3.537-5.18-5.474l-23.317-28.099-25.331-29.085c-5.369-6.397-9.756-13.854-8.69-22.367 1.167-9.32 4.141-18.409 6.225-27.622.499-2.202 1.658-5.248.69-6.618-4.173-5.907-9.269-11.155-13.569-16.981-6.204-8.404-14.956-14.91-14.634-27.607.269-10.605-4.878-12.735-14.62-8.638-6.727 2.829-17.101 1.853-20.717-2.626-6.018-7.452-7.685-16.511-7.427-25.772.194-7.013 1.577-13.983 2.114-20.997.551-7.192.255-14.472 1.147-21.61 1.662-13.292 3.703-26.548 6.013-39.743 1.245-7.112 6.306-11.757 12.856-11.03 4.176.464 8.921.767 9.957 7.648l22.245-19.929c11.382-9.978 22.629-20.131 34.407-29.622 3.827-3.084 5.75-6.359 6.474-10.892.738-4.622 4.721-7.927 9.363-8.065 7.759-.23 14.646 2.623 20.295 7.428 6.601 5.615 12.796 11.843 18.39 18.463 4.493 5.315 6.49 12.229 6.544 19.162.02 2.611-2.047 6.679-4.225 7.619-9.843 4.247-16.894 11.905-24.602 18.738-7.824 6.938-15.355 14.211-22.902 21.455l-18.756 18.487c-2.161 2.117-2.296 4.005-.085 6.267 2.905 2.972 5.479 6.266 8.365 9.259 4.383 4.544 7.563 10.307 15.38 10.699 4.242.213 9.36 2.218 12.327 5.176 11.213 11.184 21.708 23.088 32.607 34.871 1.656-.708 3.868-2.056 6.262-2.59 4.434-.987 8.974-2.05 13.469-2.047 4.071.003 9.127.121 12.03 2.389 9.593 7.493 20.256 13.979 26.796 25.025l9.815-7.65 34.88-28.079c6.449-5.001 6.768-5.047 2.287-11.571-.518-.755-.99-1.548-1.57-2.254l-20.648-25.209c-4.344-5.393-4.229-10.406.355-15.489 3.422-3.795 6.969-7.5 10.701-10.987 4.658-4.355 13.189-5.069 17.313-1.073 7.127 6.91 13.65 14.445 20.818 21.31 2.711 2.594 6.359 4.382 9.852 5.931 2.822 1.252 6.309 1.089 9.027 2.478 2.994 1.528 5.58 3.97 8.111 6.27 4.996 4.543 9.832 9.263 14.854 14.021-.436.756-.752 2.099-1.582 2.609-3.498 2.151-1.795 3.497.332 5.392 5.232 4.654 9.955 9.933 15.479 14.189 3.211 2.476 4.689 6.917 9.779 7.567 3.146.402 6.422 2.624 8.904 4.849 7.771 6.966 15.158 14.355 22.766 21.507 3.059 2.876 6.514 5.354 9.406 8.38 4.25 4.445 9.822 9.453 7.326 15.889-2.813 7.245-7.275 14.244-12.477 20.044-4.219 4.703-10.367 7.881-16.061 11.008-8.578 4.711-15.895 3.906-19.932-1.981-5.51-8.031-12.969-13.923-19.338-20.961-4.533-5.009-8.803-10.316-12.654-15.862-4.104-5.908-6.867-12.869-11.525-18.235-4.529-5.22-9.6-10.604-16.928-12.727-1.336 2.455-2.23 4.582-3.537 6.419-5.504 7.746-11.344 15.261-16.646 23.14-4.627 6.872-8.332 14.38-13.158 21.096-2.791 3.886-3.791 6.545.494 9.685 1.758 1.287 3.221 2.997 4.729 4.6l22.014 23.492 20.57 21.386c5.598 5.977 10.994 12.142 16.432 18.267l22.932 25.91c3.459 3.833 7.098 7.541 10.971 10.945 1.197 1.053 3.533 1.49 5.186 1.22 5.08-.831 9.891-.476 14.014 2.679 2.924 2.236 5.568 4.901 8.055 7.632 6.668 7.326 13.357 14.647 19.688 22.264 2.912 3.504 6.35 7.45 7.105 11.637.881 4.879 2.275 8.813 5.656 12.293 3.121 3.209 6.039 6.617 9.008 9.972l22.488 25.41c7.404 8.091 15.217 15.809 22.607 23.911 6.771 7.425 13.08 15.272 19.846 22.704l28.381 30.48c4.684 5.09 8.975 10.543 13.711 15.582 4.918 5.232 10.35 9.987 15.195 15.281 4.053 4.429 7.299 5.532 12.836 3.609 1.371-.477 3.039-.149 4.568-.11 6.633.168 9.137 6.221 12.609 9.996 12.602 13.703 24.383 28.162 36.369 42.424 4.154 4.943 6.32 10.534 4.033 17.091-5.711 16.376-15 30.842-25.186 44.592-7.496 10.119-16.129 19.49-24.988 28.47-7.637 7.74-15.945 14.938-24.609 21.514-12.23 9.279-24.766 18.24-37.74 26.433-9.631 6.084-19.723 11.508-30.904 14.775-13.084 3.82-23.01 7.104-32.521-5.721-5.445-7.34-11.182-14.367-16.215-22.093-6.287-9.65-14.529-18.025-21.914-26.961-4.385-5.305-5.652-11.202-3.98-17.965.486-1.971.225-4.898-.957-6.383-9.123-11.478-18.523-22.737-27.906-34.007l-25.994-30.958-19.885-23.706-24.045-28.333-28.908-34.229c-10.755 3.88-14.946 2.485-22.061-7.46zm210.103 76.147c21.457-18.192 44.826-33.122 71.967-42.196l-24.854-27.084-29.703-32.64-15.303-16.365-45.002-49.323c-5.844-6.405-11.98-12.57-17.463-19.271-5.76-7.041-12.703-7.58-20.738-5.524-16.664 4.264-31.576 12.069-45.199 22.36-18.459 13.943-34.475 30.334-46.787 49.968-4.369 6.966-7.641 14.755-10.383 22.531-1.016 2.876-.135 7.571 1.711 10.102 7.49 10.262 15.584 20.093 23.658 29.916l26.555 31.546 28.424 32.633c8.18 9.627 16.055 19.511 24.064 29.282l24.664 30.097c15.848-24.82 32.579-47.54 54.389-66.032zM547.025 367.549l-30.33-32.474-36.455-39.382-30.431-33.289-16.093-17.232-21.721-23.821c-4.794-5.467-10.726-9.314-17.548-10.804-4.023-.878-9.109-.166-12.874 1.614-16.025 7.579-31.497 16.341-45.304 27.498-13.673 11.05-24.666 24.549-29.692 41.739-2.639 9.026-1.909 17.629 5.463 25.464 9.823 10.44 18.227 22.201 27.569 33.112 10.313 12.043 20.962 23.798 31.53 35.62l43.752 48.904c12.695 14.739 24.78 30.006 36.988 45.158 2.2 2.73 2.939 1.244 4.266-.574 6.936-9.506 13.143-19.702 21.092-28.279 18.021-19.447 38.293-36.324 62.172-48.372 6.625-3.343 13.41-6.37 20.775-9.852l-13.159-15.03zM260.343 722.685l-55.735 131.486 126.841 26.203-1.222-22.141-.101-2.494-1.038-56.305-1.986-61.618-1.969-49.615-1.02-32.305-1.033-27.797c-.481-8.707-.855-17.463-2.171-26.06-.585-3.82-3.368-7.304-5.154-10.94l-1.512-.192c-21.195 42.582-35.147 88.176-53.9 131.778zm109.624-116.741c.014 1.829.106 3.657.148 5.486l1.035 43.796 1.987 46.617 2.988 54.92 1.985 35.614 3.053 56.422c.544 9.023 1.506 18.021 2.335 27.682l93.943-23.754-106.196-257.169-1.286.282.008 10.104zm301.072 133.468c4.105-6.821 8.098-13.731 12.627-20.264 12.488-18.014 28.84-32.29 45.816-45.803 13.297-10.586 26.77-21.021 40.822-30.554 6.996-4.746 15.422-7.427 23.293-10.825 3.971-1.715 8.148-2.947 12.352-4.439 1.197-5.894-4.092-8.567-6.617-12.419-3.361-5.128-8.602-9.079-11.672-14.333-4.43-7.585-11.529-7.379-17.826-6.281-18.332 3.195-34.838 11.407-50.17 21.702-11.324 7.604-22.76 15.286-32.904 24.326-8.783 7.827-16.506 17.114-23.463 26.656-8.916 12.231-16.695 25.304-24.777 38.13-5.803 9.207-4.238 16.627 4.492 26.264 6.553 7.231 12.713 14.815 19.512 22.786l8.515-14.946zM336.21 601.342l1.272 21.467c.072 1.133.581 2.244.604 3.372l1.039 52.798 1.004 39.305.979 27.805 1.014 33.3.985 29.805 1.021 36.301.979 28.811 1.023 34.811c.226 6.723 5.284 10.455 12.148 8.846 3.603-.846 7.096-2.156 11.048-3.383l-2.12-34.666-.08-1.496-1.014-31.305-2.004-55.605-.994-25.311-2.021-46.611-1.975-35.115-2.033-38.61-3.285-44.518-17.59-.001zm190.336-142.955c23.445-20.741 49.484-37.102 82.906-42.107-7.234-7.701-13.178-15.609-20.764-21.345-3.188-2.41-10.109-1.214-14.887.044-21.543 5.67-40.32 17.053-57.934 30.255-19.818 14.853-36.182 33.05-48.695 54.466-4.727 8.092-9.616 16.336-10.311 26.079-.107 1.516.277 3.407 1.152 4.596l19.691 26.078c7.936-31.43 25.085-57.047 48.842-78.066zM400.572 625.072l24.148 59.222 23.945 59.862 25.523 62.894c7.611 18.02 15.797 35.799 23.865 53.623 2.605 5.758 4.168 6.289 9.902 4.385 2.596-.861 5.158-1.82 7.637-2.699l-21.445-52.492-26.014-63.769-29.989-74.256-29.128-71.972c-3.806-9.242-4.12-9.126-14.682-6.911-1.123.235-2.33.033-3.484.156-1.073.114-2.128.393-3.396.638l13.118 31.319zm-118.118-38.065l-15.32 36.41-24.746 59.06-23.211 56.474-21.69 52.358-23.604 57.365c-1.323 3.176-1.289 5.301 2.334 6.467.926.299 1.796.803 2.648 1.289 3.941 2.25 6.24 2.006 8.335-2.957l32.097-74.027 27.087-65.935 42.308-102.478c2.869-6.929 5.954-13.767 8.872-20.49l-15.11-3.536zm72.3 380.236l.017 29.189c.007 1.813.289 3.623.337 5.438l2.05 77.59 1.963 44.107 1.997 42.111 2.023 44.604 2.327 37.707c2.455.346 5.176 1.217 7.793.973 3.213-.301 6.023-1.752 5.873-5.898l-2.064-58.105c-.453-10.879-1.38-21.738-1.929-32.613l-2.039-45.102-1.953-39.609-1.972-59.602c-.304-13.74-.059-27.494-.059-42.336l-14.364 1.546zm-198.435-74.694l-14.66 38.426-25.291 63.5-36.326 91.713-20.868 52.121c-.5 1.27-.214 3.986.577 4.412 2.355 1.268 5.315 2.529 7.146-1.072 2.372-4.67 4.938-9.262 6.979-14.074l29.303-69.84 28.198-68.178 21.767-51.805c5.542-13.539 10.688-27.242 16.013-40.879l-12.838-4.324zm187.516-703.483c-2.975-3.519-6.549-6.555-9.329-10.207-4.053-5.322-9.805-5.813-15.109-4.543-17.137 4.104-28.955 15.041-34.869 31.439-2.354 6.529-.594 13.769 4.224 19.373 6.21 7.227 12.729 14.188 19.535 21.729 14.815-14.713 28.77-31.533 49.883-38.685-2.223-8.857-9.33-13.185-14.335-19.106zM531.05 903.883l-12.033 4.414 27.799 66.174 46.432 115.031 19.957 50.918c.99 2.529 2.404 4.084 5.541 3.748 3.125-.334 6.314-.072 9.188-.072L531.05 903.883zm271.299-245.358c-4.531 7.515-8.363 15.604-13.836 22.36-8.049 9.94-16.895 19.321-26.104 28.215-13.328 12.873-26.904 25.583-44.135 33.409-11.225 5.098-22.074 11.307-35.061 10.664-.953-.047-2.594.717-2.83 1.451-1.584 4.938-3.221 9.908-4.137 14.993-.59 3.279 1.754 4.844 5.035 4.385 9.514-1.328 18.225-5.182 26.174-10.165 12.24-7.672 24.299-15.748 35.719-24.58a272.17 272.17 0 0 0 28.434-25.381c11.318-11.627 22.088-23.845 32.365-36.405 6.236-7.622 11.27-16.319 12.709-26.433.398-2.796.061-5.696.061-9.09-9.652 2.411-10.747 10.527-14.394 16.577zm-86.453 72.896c4.338-2.389 8.217-5.814 11.84-9.26 11.369-10.811 23.193-21.254 33.551-32.979 9.592-10.856 17.551-23.16 26.15-34.883.955-1.303 1.404-2.979 2.088-4.48l-1.438-1.408c-8.488 5.561-17.369 10.613-25.373 16.801-11.934 9.225-23.65 18.813-34.729 29.04-15.006 13.851-30.379 27.539-39.938 46.166-.609 1.189-1.119 2.43-1.678 3.648l1.189 1.535c9.469-4.685 19.092-9.09 28.338-14.18zM267.19 119.424l-16.508-17.191c-2.147-2.171-3.976-1.514-4.534 1.457-1.11 5.909-2.323 11.822-2.971 17.79-1.401 12.92-2.566 25.866-3.642 38.817-.595 7.169-.811 14.368-1.275 23.004 17.767-13.564 32.239-29.64 51.547-39.39l-22.617-24.487zm50.906-59.721l-32.056 29.23c-2.975 2.594-2.684 4.642-.623 6.725 5.345 5.403 10.93 10.578 16.607 15.632.643.571 2.907.254 3.72-.454 4.858-4.234 9.488-8.731 14.24-13.09l22.372-20.385c2.713-2.453 3.827-3.792-.079-7.082-5.578-4.699-9.82-10.981-15.151-17.19-2.573 1.862-6.065 3.945-9.03 6.614zm181.425 144.726c-.74-.973-1.148-1.467-1.51-1.992-6.318-9.176-6.523-9.456-14.961-3.265-12.201 8.954-24.26 18.13-36.004 27.675-5.7 4.633-5.529 5.284-.943 10.93 4.926 6.063 10.312 11.753 16.279 18.488l37.139-51.836zM342.314 418.644c-1.812 3.233-.731 6.198 2.33 8.296 11.036 7.56 19.356 17.744 27.506 28.14 5.849 7.461 11.989 14.693 17.97 22.051l11.885 14.802 10.469-11.748-62.709-72.999c-2.368 3.593-5.167 7.382-7.451 11.458zm29.292-5.64l34.514 37.727c10.153 11.548 19.641 23.679 29.678 35.333 1.65 1.916 4.521 3.323 7.024 3.714 1.122.176 3.91-2.785 3.849-4.234-.105-2.479-1.38-5.276-2.995-7.265l-38.135-46.199c-4.752-5.691-9.711-11.215-14.684-16.717l-21.659-23.583c-.63-.678-1.712-.936-2.673-1.434-5.986 10.844-4.389 12.025 5.081 22.658zm-2.669 58.903c1.099-7.533-6.617-19.252-13.706-22.158-1.166-.478-2.681-.908-3.796-.571-6.325 1.913-12.979 3.302-18.751 6.336-6.698 3.521-7.442 10.677-6.438 17.415 1.073 7.195 4.603 13.436 11.145 17.108 2.853 1.602 6.421 1.926 9.665 2.831 13.766.193 20.381-10.684 21.881-20.961zm7.417 79.947c-.364 8.084-.963 15.547 2.506 22.735 1.46 3.026 3.176 5.04 6.596 4.466 7.195-1.208 14.369-2.572 21.497-4.122.697-.151 1.582-2.129 1.423-3.102-1.264-7.696-2.76-15.354-4.324-23.779l-27.698 3.802zm-40.032 3.231c-8.183-.04-8.196-.058-8.205 8.411l.001 3.987c.045 9.838 1.277 11.567 10.713 12.495 5.431.535 10.96.236 16.438.059 4.136-.133 5.865-2.73 5.854-6.696l-.004-18.247c-8.6 0-16.699.031-24.797-.009zm-3.293-48.861c-3.822-1.005-6.646.61-7.97 4.641-1.607 4.892-3.457 9.703-5.208 14.567l49.689-1.798-3.482-17.022c-11.308 1.518-22.164 2.471-33.029-.388zm222.125-299.23c.559-.664.355-2.915-.318-3.523l-22.146-19.555c-3.693-3.377-5.836-1-8.225 1.439-.115.116-.186.275-.273.416-5.381 8.529-5.225 9.548 1.836 16.765 2.877 2.939 5.49 6.134 8.318 9.124 2.727 2.887 5.574 5.66 8.697 8.815 4.316-4.738 8.345-8.998 12.111-13.481zM282.723 571.06l22.494 4.998c4.434.918 5.844-2.882 6.564-5.699 1.083-4.237 1.274-8.789 1.234-13.202-.036-3.896-2.665-6.538-6.431-6.943-6.531-.703-13.125-.826-20.025-1.211l-3.836 22.057zm291.316-351.383c-5.26-2.165-12.553 1.615-16.656 7.796-3.57 5.38-2.717 10.364 1.096 15.729 3.295 4.638 4.615 4.486 8.313.081 5.154-6.144 11.705-11.116 18.129-17.022-3.437-2.131-6.916-4.951-10.882-6.584zM344.308 943.239c.468 2.111 2.77 5.34 4.375 5.416 6.85.326 13.766-.152 20.608-.828 1.07-.104 2.639-2.713 2.685-4.205.124-4.029-.447-8.08-.7-11.539h-27.164c0 4.201-.542 7.82.196 11.156zm-52.752-781.633c-8.38 5.522-15.654 12.707-23.532 19.015-3.22 2.577-2.721 4.775.129 6.97 2.227 1.714 4.606 3.229 6.895 4.816 5.982-12.052 16.492-22.079 30.909-28.528-5.667-7.006-6.736-7.325-14.401-2.273zm211.227 1.322c-6.295 6.417-5.953 15.247 1.434 24.686 6.639-7.435 10.338-17.793 22.051-20.706-12.589-9.461-17.46-10.123-23.485-3.98zm-15.412-.115l13.184-12.058-10.729-8.708c-2.141-1.697-4.859-4.985-6.473-4.533-3.041.851-5.479 3.878-8.146 6.025-.379.305-.648.747-1.639 1.921l13.803 17.353zM370.96 536l-31.512 1.023c-5.933.062-11.871-.792-17.809-.816-1.93-.008-3.864 1.306-5.602 3.052 18.198 3.241 36.243 3.688 54.922 1.499l.001-4.758zm131.198 347.747l3.701 11.391c6.031-2.656 11.951-4.732 17.313-7.789 4.535-2.586 6.848-6.742 3.141-11.992l-24.155 8.39zm81.222-622.024c.588.588 2.467.636 3.262.142a208.44 208.44 0 0 0 12.551-8.425c3.096-2.252 4.434-4.872.838-8.069-1.303-1.157-2.148-2.828-3.539-4.722l-19.361 13.641c2.327 2.836 4.12 5.302 6.249 7.433zM162.067 878.52c5.524 4.469 13.673 4.943 18.092 1.049.87-.768 2.068-1.404 2.485-2.373.399-.926.412-2.65-.182-3.23-.98-.959-2.552-1.379-3.934-1.854-3.063-1.053-6.279-1.74-9.215-3.063s-5.601-3.232-8.382-4.883c-3.625 6.018-3.228 10.823 1.136 14.354zM345.74 57.162c2.057 2.74 4.427 5.254 6.753 7.78.769.835 2.458 2.129 2.669 1.951 1.164-.975 2.887-2.436 2.767-3.553-.266-2.479-.967-5.281-2.467-7.182-3.554-4.506-7.457-8.801-11.674-12.687-1.765-1.626-4.686-1.997-7.081-2.938l-1.519 1.847 10.552 14.782zm-54.346 60.951c-5.666-6.616-11.815-12.819-17.83-19.229l-6.767 3.475 24.491 24.385 2.618-1.229c-.797-2.502-.939-5.565-2.512-7.402zm67.723 353.226c-.926-8.063-2.379-12.376-12.177-12.24-6.563.092-11.944 4.95-11.814 10.645.156 6.813 5.946 12.589 12.376 12.35 6.539-.244 11.702-5.025 11.615-10.755z"/></svg>