<svg xmlns="http://www.w3.org/2000/svg" viewBox="0 0 876.087 1290.129" xmlns:v="https://vecta.io/nano"><path d="M383.123 566.717l-28.908 34.229-24.044 28.333-19.886 23.706-25.994 30.958-27.906 34.007c-1.182 1.484-1.443 4.412-.957 6.383 1.673 6.764.404 12.66-3.98 17.965-7.385 8.936-15.627 17.311-21.914 26.961-5.033 7.726-10.77 14.753-16.214 22.093-9.513 12.824-19.438 9.541-32.521 5.721-11.183-3.268-21.274-8.691-30.905-14.775-12.975-8.192-25.509-17.153-37.739-26.433-8.665-6.576-16.974-13.774-24.609-21.514-8.86-8.98-17.493-18.352-24.989-28.47-10.186-13.75-19.474-28.216-25.186-44.592-2.287-6.557-.121-12.147 4.033-17.091 11.986-14.262 23.769-28.721 36.369-42.424 3.473-3.775 5.978-9.828 12.609-9.996 1.529-.039 3.197-.366 4.568.11 5.537 1.923 8.783.819 12.836-3.609 4.846-5.294 10.278-10.049 15.195-15.281 4.736-5.039 9.027-10.492 13.711-15.582l28.381-30.48c6.766-7.432 13.074-15.279 19.846-22.704 7.392-8.103 15.204-15.82 22.608-23.911 7.636-8.343 14.991-16.94 22.487-25.41 2.969-3.354 5.888-6.763 9.008-9.972 3.382-3.479 4.775-7.414 5.656-12.293.756-4.187 4.194-8.133 7.106-11.637 6.329-7.616 13.019-14.938 19.688-22.264 2.485-2.73 5.13-5.396 8.054-7.632 4.124-3.154 8.935-3.51 14.015-2.679 1.652.271 3.987-.167 5.185-1.22 3.874-3.404 7.512-7.112 10.972-10.945l22.931-25.91 16.432-18.267 20.57-21.386 22.015-23.492c1.507-1.603 2.971-3.313 4.728-4.6 4.285-3.14 3.285-5.799.494-9.685-4.825-6.716-8.531-14.224-13.158-21.096-5.303-7.879-11.143-15.394-16.646-23.14-1.306-1.837-2.201-3.964-3.537-6.419-7.328 2.122-12.397 7.507-16.928 12.727-4.657 5.366-7.422 12.327-11.525 18.235-3.852 5.546-8.121 10.854-12.653 15.862-6.37 7.038-13.829 12.93-19.339 20.961-4.037 5.888-11.354 6.692-19.932 1.981-5.692-3.127-11.842-6.305-16.061-11.008-5.201-5.8-9.664-12.799-12.476-20.044-2.497-6.436 3.076-11.443 7.326-15.889 2.892-3.025 6.347-5.504 9.406-8.38l22.765-21.507c2.482-2.225 5.759-4.446 8.904-4.849 5.09-.65 6.569-5.092 9.78-7.567 5.522-4.257 10.245-9.535 15.478-14.189 2.128-1.895 3.831-3.24.333-5.392-.83-.511-1.147-1.854-1.583-2.609l14.854-14.021c2.53-2.3 5.116-4.741 8.11-6.27 2.719-1.389 6.205-1.226 9.028-2.478 3.491-1.549 7.141-3.337 9.851-5.931 7.168-6.864 13.691-14.399 20.819-21.31 4.123-3.996 12.653-3.282 17.312 1.073 3.732 3.487 7.279 7.192 10.701 10.987 4.585 5.083 4.699 10.097.355 15.489l-20.648 25.209c-.579.706-1.053 1.499-1.57 2.254-4.479 6.524-4.162 6.57 2.288 11.571 11.793 9.145 23.257 18.714 34.879 28.079 3.104 2.502 6.288 4.906 9.815 7.65 6.54-11.046 17.203-17.532 26.796-25.025 2.903-2.268 7.959-2.386 12.03-2.389 4.495-.003 9.035 1.06 13.469 2.047 2.394.534 4.605 1.882 6.262 2.59 10.899-11.783 21.395-23.688 32.607-34.871 2.967-2.958 8.085-4.963 12.327-5.176 7.816-.393 10.997-6.155 15.38-10.699 2.886-2.993 5.46-6.287 8.365-9.259 2.211-2.262 2.076-4.149-.085-6.267l-18.756-18.487-22.902-21.455c-7.708-6.833-14.759-14.491-24.602-18.738-2.178-.94-4.244-5.008-4.225-7.619.054-6.934 2.051-13.847 6.544-19.162 5.594-6.62 11.789-12.848 18.39-18.463 5.649-4.805 12.536-7.658 20.295-7.428 4.643.139 8.625 3.443 9.363 8.065.724 4.532 2.646 7.808 6.474 10.892 11.778 9.491 23.025 19.645 34.407 29.622l22.245 19.929c1.036-6.882 5.781-7.185 9.957-7.648 6.551-.727 11.611 3.918 12.856 11.03 2.31 13.195 4.351 26.451 6.013 39.743.893 7.139.597 14.418 1.147 21.61.537 7.014 1.92 13.984 2.114 20.997.258 9.262-1.409 18.32-7.427 25.772-3.616 4.479-13.99 5.455-20.717 2.626-9.742-4.098-14.889-1.968-14.62 8.638.322 12.697-8.43 19.203-14.634 27.607-4.301 5.826-9.396 11.074-13.569 16.981-.968 1.37.191 4.416.69 6.618 2.084 9.213 5.058 18.302 6.225 27.622 1.065 8.513-3.321 15.97-8.69 22.367-8.263 9.847-16.992 19.3-25.331 29.085l-23.317 28.099c-1.62 1.937-4.193 3.314-5.18 5.474-.882 1.933-1.161 5.413-.009 6.781 4.791 5.69 10.229 10.836 15.42 16.19 6.146 6.342 10.471 13.837 11.688 22.523.721 5.136-1.532 9.981-6.9 13.43l12.477 10.941c8.769 7.828 10.194 18.43 9.268 29.015-.4 4.569-4.628 8.829-7.218 13.169-1.422 2.383-.649 3.57.866 6.021 3.695 5.973 5.958 12.836 8.75 19.361.443 1.036.609 2.188.956 3.27 1.035 3.231 1.158 8.042 3.351 9.338 4.017 2.373 9.213 3.364 14.003 3.696 11.823.818 15.073 4.063 16.901 15.985 1.024 6.686 3.831 13.085 5.583 19.68.496 1.864.891 4.485-.023 5.859-2.747 4.133-1.379 7.706.24 11.595l49.088 118.256 26.699 65.128 27.58 66.348c.626 1.5 1.119 3.441 2.307 4.262 9.224 6.365 9.851 17.313 14.473 26.131 3.018 5.756 4.146 11.035 3.236 17.604-.564 4.072 2.052 8.732 3.71 12.943l25.841 64.889 28.738 71.709 31.489 78.945c4.445 10.846 9.893 21.279 14.882 31.9 3.582 7.627 1.93 11.662-6.148 14.031-10.381 3.043-20.954 2.557-31.4.525-3.275-.639-5.55-2.807-6.766-6.859-3.262-10.873-7.28-21.543-11.477-32.104l-28.456-70.178-32.712-78.539-25.124-63.621c-.762-1.918-1.881-3.996-3.439-5.244-8.604-6.891-11.938-16.539-14.516-26.646-.121-.477-.227-.967-.437-1.404-.279-.582-.654-1.115-1.124-1.896l-67.993 12.924-60.687 13.021c-1.062.232-2.451 1.732-2.614 2.805-.614 4.057-.799 8.18-1.112 12.281-.063.826-.233 1.77.065 2.482 6.071 14.455-.017 29.414 1.681 44.076.213 1.838-2.891 3.994-4.311 6.102-1.256 1.861-3.206 3.818-3.302 5.807-.618 12.924-.792 25.869-1.156 38.805l-1 31.813-2.003 50.627-1.991 43.117-1.996 42.623-2.044 42.613c-.42 7.381-1.518 14.727-1.824 22.107-.187 4.49.959 9.037.776 13.527-.243 5.949-4.196 10.354-9.972 10.918-4.4.43-8.91-.236-13.369-.445-1.649-.076-3.416-.688-4.92-.281-6.098 1.643-10.212-2.971-15.046-4.908-1.601-.641-2.565-4.928-2.441-7.48.724-14.809 1.933-29.592 2.832-44.395l2.004-38.119 2.018-42.615 1.99-40.117 2.005-40.615 2.006-40.621 1.863-40.117c.055-1.795-1.304-4.307-2.802-5.363-6.287-4.432-3.835-10.811-3.946-16.467-.122-6.264.215-12.582.966-18.803.796-6.594 2.417-13.084 3.479-19.652.626-3.871.983-7.801 1.163-11.717.03-.652-1.366-1.789-2.271-2.008l-71.772-17.131c-8.683-2.094-17.28-4.545-26.815-7.07l-5.84 20.881c-2.41 7.793-5.387 14.846-12.251 20.586-4.44 3.713-6.241 10.828-8.679 16.648l-28.143 68.248-34.018 83.756-25.436 64.004c-1.678 4.246-2.296 9.209-4.923 12.695-2.433 3.229-6.729 6.551-10.511 6.951-7.646.811-15.508-.207-23.266-.721-4.284-.283-7.404-4.779-7.852-9.953-.574-6.629 1.51-12.588 3.945-18.543l53.924-132.16 41.098-105.6c.996-2.6-.004-5.951-.009-8.953-.003-2-.399-4.197.276-5.965 1.618-4.23 4.018-8.164 5.631-12.398 1.704-4.467 3.884-8.15 7.48-11.658 3.794-3.699 6.248-9.104 8.354-14.152l39.596-96.274 33.824-85.381 27.781-70.975c.886-2.316-.182-5.421-.496-8.142-.354-3.064-1.688-6.246-1.19-9.135 1.688-9.78 4.31-19.399 5.976-29.182 1.49-8.744 8.1-10.051 14.874-11.431 3.987-.813 8.167-.968 11.973-2.263 1.975-.671 4.289-2.931 4.789-4.896 2.085-8.202 3.521-16.568 5.249-24.863.19-.913.82-1.728 1.08-2.635.558-1.951 1.008-3.934 1.502-5.903l-2.061-.972-17.008 19.493c-6.619 7.892-11.263 5.468-16.603-.361-1.97-2.15-3.354-4.827-5.151-7.15-1.703-2.2-3.598-4.252-5.83-6.863-4.927 5.608-9.952 11.028-14.637 16.728l-26.982 33.449c-1.072 1.33-2.268 2.568-3.258 3.953-7.114 9.951-11.307 11.347-22.06 7.46zM249.468 701.441l24.665-30.097 24.064-29.282 28.423-32.633 26.555-31.546c8.074-9.823 16.168-19.654 23.658-29.916 1.846-2.53 2.727-7.226 1.712-10.102-2.742-7.776-6.015-15.565-10.383-22.531-12.313-19.634-28.328-36.024-46.788-49.968-13.623-10.291-28.535-18.097-45.199-22.36-8.035-2.056-14.978-1.517-20.738 5.524-5.482 6.701-11.619 12.866-17.462 19.271l-45.002 49.323-15.304 16.365-29.702 32.64-24.854 27.084c27.141 9.074 50.51 24.004 71.967 42.196 21.81 18.494 38.541 41.214 54.388 66.032zM315.031 392l20.775 9.852c23.88 12.048 44.15 28.925 62.173 48.372 7.948 8.577 14.155 18.773 21.091 28.279 1.326 1.818 2.065 3.305 4.266.574l36.988-45.158c14.272-16.569 29.174-32.597 43.752-48.904l31.53-35.62c9.343-10.911 17.746-22.672 27.569-33.112 7.372-7.835 8.102-16.438 5.463-25.464-5.026-17.19-16.02-30.689-29.692-41.739-13.807-11.157-29.278-19.919-45.304-27.498-3.765-1.78-8.851-2.492-12.874-1.614-6.822 1.489-12.754 5.337-17.548 10.804-7.083 8.078-14.436 15.921-21.721 23.821l-16.093 17.232-30.431 33.289-36.455 39.382-30.329 32.474c-4.457 4.826-8.668 9.883-13.16 15.03zm245.941 208.326l-1.512.192c-1.786 3.637-4.569 7.12-5.154 10.94-1.315 8.597-1.689 17.353-2.171 26.06-.513 9.256-.726 18.529-1.033 27.797l-1.02 32.305-1.969 49.615-1.986 61.618-1.038 56.305a69.1 69.1 0 0 1-.101 2.494l-1.222 22.141 126.841-26.203-55.735-131.486c-18.752-43.603-32.705-89.196-53.9-131.778zm-55.717 4.933l-1.286-.282-106.196 257.169 93.943 23.754 2.335-27.682 3.053-56.422 1.985-35.614 2.988-54.92 1.987-46.617 1.035-43.796.148-5.486.008-10.104zM212.693 763.776l19.512-22.786c8.731-9.637 10.295-17.057 4.492-26.264-8.082-12.827-15.861-25.899-24.777-38.13-6.957-9.542-14.679-18.829-23.463-26.656-10.145-9.04-21.58-16.723-32.904-24.326-15.332-10.295-31.838-18.507-50.17-21.702-6.296-1.098-13.396-1.304-17.826 6.281-3.07 5.254-8.31 9.205-11.672 14.333-2.525 3.852-7.814 6.525-6.617 12.419 4.203 1.492 8.382 2.725 12.352 4.439 7.872 3.398 16.297 6.079 23.293 10.825 14.053 9.532 27.525 19.968 40.822 30.554 16.977 13.514 33.328 27.79 45.816 45.803 4.529 6.533 8.522 13.443 12.627 20.264 2.909 4.837 5.597 9.805 8.515 14.946zm308.721-153.015l-3.285 44.518-2.033 38.61-1.975 35.115-2.021 46.611-.994 25.311-2.004 55.605-1.014 31.305c-.017.5-.05.998-.08 1.496l-2.12 34.666c3.952 1.227 7.445 2.537 11.048 3.383 6.864 1.609 11.923-2.123 12.148-8.846l1.023-34.811.979-28.811 1.021-36.301.985-29.805 1.014-33.3.979-27.805 1.004-39.305 1.039-52.798c.023-1.128.532-2.239.604-3.372l1.272-21.467-17.59.001zm-123.905-64.889l19.691-26.078c.875-1.188 1.26-3.08 1.152-4.596-.694-9.743-5.583-17.987-10.311-26.079-12.514-21.416-28.876-39.613-48.694-54.466-17.614-13.202-36.392-24.585-57.934-30.255-4.777-1.258-11.7-2.454-14.888-.044-7.586 5.735-13.528 13.644-20.764 21.345 33.422 5.006 59.461 21.366 82.906 42.107 23.761 21.019 40.909 46.636 48.842 78.066zm90.252 57.299c-1.269-.245-2.323-.523-3.396-.638-1.154-.123-2.361.079-3.484-.156-10.562-2.215-10.876-2.331-14.682 6.911l-29.128 71.972-29.989 74.256-26.014 63.769-21.444 52.492 7.637 2.699c5.733 1.904 7.296 1.373 9.901-4.385l23.866-53.623 25.522-62.894 23.945-59.862 24.148-59.222 13.118-31.319zm89.893-3.21l8.872 20.49 42.308 102.478 27.087 65.935 32.097 74.027c2.095 4.963 4.394 5.207 8.335 2.957.853-.486 1.723-.99 2.648-1.289 3.623-1.166 3.657-3.291 2.334-6.467l-23.604-57.365-21.69-52.358-23.211-56.474-24.746-59.06-15.32-36.41-15.11 3.536zm-71.557 375.154l-.059 42.336-1.972 59.602-1.953 39.609-2.039 45.102-1.929 32.613-2.064 58.105c-.15 4.146 2.66 5.598 5.873 5.898 2.617.244 5.338-.627 7.793-.973l2.327-37.707 2.023-44.604 1.997-42.111 1.963-44.107 2.05-77.59c.048-1.814.33-3.625.337-5.438l.017-29.189-14.364-1.546zm199.964-68.823l16.013 40.879 21.767 51.805 28.198 68.178 29.303 69.84c2.041 4.813 4.606 9.404 6.979 14.074 1.83 3.602 4.79 2.34 7.146 1.072.791-.426 1.077-3.143.577-4.412l-20.868-52.121-36.326-91.713-25.291-63.5-14.66-38.426-12.838 4.324zm-189.015-688.7c21.113 7.151 35.067 23.972 49.883 38.685l19.535-21.729c4.817-5.604 6.578-12.844 4.224-19.373-5.914-16.398-17.732-27.335-34.869-31.439-5.305-1.27-11.057-.779-15.109 4.543-2.78 3.652-6.354 6.688-9.329 10.207-5.006 5.92-12.112 10.248-14.335 19.106zm-269.763 935.923c2.873 0 6.063-.262 9.188.072 3.138.336 4.551-1.219 5.541-3.748l19.957-50.918 46.432-115.031 27.799-66.174-12.033-4.414-96.884 240.213zM58.472 651.368c0 3.394-.337 6.294.061 9.09 1.439 10.113 6.474 18.811 12.71 26.433 10.276 12.56 21.046 24.778 32.364 36.405a271.98 271.98 0 0 0 28.435 25.381c11.419 8.832 23.478 16.908 35.718 24.58 7.95 4.983 16.66 8.837 26.175 10.165 3.28.459 5.624-1.105 5.034-4.385-.915-5.085-2.553-10.056-4.137-14.993-.236-.734-1.877-1.498-2.829-1.451-12.986.643-23.837-5.566-35.062-10.664-17.229-7.826-30.807-20.536-44.135-33.409-9.208-8.895-18.055-18.275-26.104-28.215-5.473-6.757-9.305-14.846-13.836-22.36-3.646-6.051-4.741-14.167-14.394-16.577zM187.656 755.02l1.189-1.535c-.558-1.219-1.068-2.459-1.678-3.648-9.559-18.627-24.932-32.315-39.938-46.166-11.078-10.227-22.795-19.815-34.729-29.04-8.004-6.188-16.885-11.24-25.373-16.801l-1.437 1.408c.683 1.502 1.132 3.178 2.087 4.48 8.6 11.723 16.559 24.026 26.15 34.883 10.358 11.725 22.183 22.168 33.551 32.979 3.623 3.445 7.502 6.871 11.841 9.26 9.247 5.09 18.87 9.494 28.337 14.18zm397.753-601.689c19.308 9.75 33.78 25.825 51.547 39.39l-1.275-23.004-3.642-38.817c-.647-5.968-1.86-11.881-2.971-17.79-.559-2.971-2.387-3.628-4.534-1.457-5.586 5.647-11.081 11.39-16.508 17.191l-22.617 24.487zm-37.32-90.824c-5.331 6.209-9.573 12.491-15.151 17.19-3.906 3.29-2.792 4.629-.079 7.082l22.372 20.385 14.24 13.09c.813.708 3.077 1.025 3.72.454 5.678-5.054 11.263-10.229 16.607-15.632 2.061-2.083 2.352-4.131-.623-6.725-10.895-9.503-21.309-19.554-32.056-29.23-2.964-2.668-6.456-4.751-9.03-6.614zM412.833 265.684c5.968-6.735 11.354-12.425 16.279-18.488 4.586-5.646 4.757-6.297-.943-10.93-11.744-9.545-23.802-18.721-36.004-27.675-8.438-6.191-8.642-5.911-14.96 3.265-.362.525-.771 1.02-1.511 1.992l37.139 51.836zm112.619 150.92l-62.709 72.999 10.469 11.748 11.885-14.802 17.97-22.051c8.149-10.396 16.47-20.58 27.506-28.14 3.062-2.098 4.142-5.063 2.33-8.296-2.285-4.075-5.084-7.864-7.451-11.458zm-16.761-16.839c-.961.498-2.043.756-2.673 1.434l-21.659 23.583-14.684 16.717-38.135 46.199c-1.615 1.988-2.89 4.785-2.995 7.265-.062 1.449 2.727 4.41 3.849 4.234 2.503-.391 5.374-1.798 7.024-3.714l29.678-35.333c11.251-12.798 23.18-24.999 34.514-37.727 9.47-10.633 11.067-11.814 5.081-22.658zm19.469 102.522c3.244-.905 6.813-1.229 9.665-2.831 6.542-3.673 10.071-9.913 11.145-17.108 1.005-6.738.261-13.895-6.438-17.415-5.771-3.034-12.426-4.423-18.751-6.336-1.115-.337-2.63.094-3.796.571-7.089 2.906-14.805 14.625-13.706 22.158 1.5 10.277 8.115 21.154 21.881 20.961zm-56.995 55.184l-4.324 23.779c-.159.973.726 2.95 1.423 3.102 7.128 1.55 14.302 2.914 21.497 4.122 3.42.574 5.136-1.439 6.596-4.466 3.469-7.188 2.87-14.651 2.506-22.735l-27.698-3.802zm42.932 7.042l-.004 18.247c-.011 3.966 1.719 6.563 5.854 6.696 5.478.178 11.007.477 16.438-.059 9.436-.928 10.668-2.657 10.713-12.495l.001-3.987c-.009-8.469-.022-8.451-8.205-8.411l-24.797.009zm-4.939-48.482l-3.482 17.022 49.689 1.798-5.208-14.567c-1.323-4.03-4.147-5.646-7.97-4.641-10.865 2.858-21.722 1.906-33.029.388zM332.173 229.894l8.698-8.815c2.827-2.99 5.441-6.185 8.317-9.124 7.062-7.217 7.218-8.235 1.836-16.765-.088-.141-.158-.3-.272-.416-2.389-2.439-4.532-4.816-8.225-1.439-7.265 6.646-14.844 12.949-22.147 19.555-.673.608-.877 2.859-.318 3.523 3.766 4.483 7.796 8.743 12.111 13.481zm256.483 328.527c-6.9.385-13.494.508-20.025 1.211-3.766.405-6.395 3.047-6.431 6.943-.04 4.413.151 8.965 1.234 13.202.721 2.817 2.131 6.617 6.564 5.699 7.403-1.532 14.764-3.269 22.494-4.998l-3.836-22.057zm-298.36-322.742c6.424 5.906 12.975 10.879 18.13 17.022 3.697 4.405 5.017 4.557 8.313-.081 3.812-5.364 4.666-10.349 1.095-15.729-4.103-6.181-11.396-9.961-16.656-7.796-3.968 1.634-7.446 4.454-10.882 6.584zm240.808 705.822H503.94c-.253 3.459-.824 7.51-.7 11.539.046 1.492 1.614 4.102 2.685 4.205 6.843.676 13.759 1.154 20.608.828 1.605-.076 3.907-3.305 4.375-5.416.738-3.335.196-6.954.196-11.156zm38.155-768.204c14.417 6.449 24.927 16.477 30.909 28.528 2.288-1.587 4.668-3.103 6.895-4.816 2.85-2.194 3.349-4.393.129-6.97-7.878-6.308-15.152-13.492-23.532-19.015-7.665-5.051-8.734-4.732-14.401 2.273zm-220.31 3.03c11.713 2.913 15.413 13.271 22.051 20.706 7.387-9.438 7.729-18.269 1.434-24.686-6.026-6.143-10.897-5.481-23.485 3.98zm52.699-21.448c-.99-1.174-1.259-1.616-1.638-1.921-2.669-2.147-5.106-5.175-8.147-6.025-1.613-.452-4.331 2.836-6.473 4.533l-10.729 8.708 13.184 12.058 13.803-17.353zm102.607 395.298c18.679 2.189 36.724 1.742 54.922-1.499-1.737-1.746-3.672-3.06-5.602-3.052-5.938.024-11.876.878-17.809.816-10.458-.108-20.912-.655-31.512-1.023l.001 4.758zM348.904 884.775c-3.707 5.25-1.395 9.406 3.141 11.992 5.361 3.057 11.281 5.133 17.313 7.789l3.701-11.391-24.155-8.39zm-50.819-621.067l-19.361-13.641c-1.391 1.894-2.236 3.564-3.539 4.722-3.596 3.197-2.257 5.817.838 8.069 4.074 2.963 8.274 5.766 12.552 8.425.795.494 2.673.446 3.261-.142 2.128-2.13 3.921-4.596 6.249-7.433zm416.199 609.877c-2.781 1.65-5.448 3.563-8.382 4.883s-6.152 2.01-9.215 3.063c-1.382.475-2.953.895-3.934 1.854-.594.58-.581 2.305-.182 3.23.417.969 1.615 1.605 2.485 2.373 4.419 3.895 12.567 3.42 18.092-1.049 4.365-3.531 4.762-8.336 1.136-14.354zM540.028 51.799l-1.519-1.847c-2.396.941-5.316 1.313-7.081 2.938-4.217 3.886-8.12 8.181-11.674 12.687-1.5 1.9-2.201 4.703-2.467 7.182-.12 1.117 1.603 2.578 2.767 3.553.211.178 1.9-1.116 2.669-1.951 2.326-2.526 4.696-5.04 6.753-7.78 3.633-4.841 7.047-9.846 10.552-14.782zm41.281 83.134l2.618 1.229 24.491-24.385-6.767-3.475c-6.015 6.41-12.164 12.613-17.83 19.229-1.572 1.838-1.714 4.901-2.512 7.402zm-65.21 345.825c.926-8.063 2.379-12.376 12.177-12.24 6.563.092 11.944 4.95 11.814 10.645-.156 6.813-5.946 12.589-12.376 12.35-6.539-.244-11.702-5.025-11.615-10.755z"/></svg>